# File created by Blade
# Date/Time:  Tue Apr 07 20:41:02 2015
# Frame Rate: 120.000 fps
#------------------------------------------------------
:FULLY-SPECIFIED
:DEGREES
569
root 1.985380 33.245236 -1.918419 -1.826354 -14.783503 -31.804012
Spine 34.553404 14.969062 28.445422
Head -22.608249 -4.945212 11.518099
LeftShoulder -22.092996 39.694682 16.605563
LeftArm 57.826346 -49.045118 -84.941867
LeftForeArm 4.612383 0.000000 23.381429
LeftHand 11.002038 -0.000000 16.504603
LeftHandThumb1 -26.253704 0.000000 33.147579
RightShoulder 7.256481 19.472450 -14.169615
RightArm 21.853266 55.141166 74.845285
RightForeArm 61.992491 -0.000000 43.920264
RightHand -2.057719 -0.000000 28.068787
RightHandThumb1 -24.326973 -0.000000 -32.862282
LeftUpLeg -6.150912 2.537744 26.958412
LeftLeg 30.062321 -0.000000 -0.000000
LeftFoot -20.379709 17.212123 -17.560884
LeftToeBase -4.615624 -0.000000 0.000000
RightUpLeg -139.353966 -21.268059 30.089069
RightLeg 74.561506 -0.000000 -0.000000
RightFoot 41.136276 -0.731342 10.357075
RightToeBase 22.159548 -0.000000 -0.000000
570
root 1.934955 33.272151 -1.854667 -1.863800 -14.983110 -32.206490
Spine 34.224567 15.017466 28.621590
Head -21.971407 -4.876166 11.701852
LeftShoulder -22.091793 39.603897 16.841003
LeftArm 58.362917 -50.291743 -85.232887
LeftForeArm 4.634588 -0.000000 23.489224
LeftHand 11.302568 -0.000000 16.331773
LeftHandThumb1 -26.253704 0.000000 33.147579
RightShoulder 6.983959 20.015725 -14.347996
RightArm 21.929379 55.588485 74.490827
RightForeArm 61.868204 -0.000000 44.177297
RightHand -2.068690 0.000000 28.039131
RightHandThumb1 -24.326973 -0.000000 -32.862282
LeftUpLeg -5.732134 2.267396 27.340135
LeftLeg 29.902352 -0.000000 -0.000000
LeftFoot -20.399874 17.877077 -17.200094
LeftToeBase -4.687286 -0.000000 0.000000
RightUpLeg -139.701581 -21.366956 30.195588
RightLeg 73.349459 -0.000000 -0.000000
RightFoot 41.235575 -0.867352 10.735650
RightToeBase 21.223744 -0.000000 -0.000000
571
root 1.885513 33.297682 -1.794134 -1.855500 -15.167575 -32.606045
Spine 33.875099 15.192395 28.829397
Head -21.382808 -4.829883 11.965886
LeftShoulder -21.972842 39.399314 17.240279
LeftArm 58.970014 -51.487357 -85.648121
LeftForeArm 4.798746 -0.000000 23.683677
LeftHand 11.196355 -0.000000 16.308187
LeftHandThumb1 -26.253704 0.000000 33.147579
RightShoulder 6.616406 20.565666 -14.554505
RightArm 21.957991 56.114163 74.157619
RightForeArm 61.609929 0.000000 44.445585
RightHand -2.034381 0.000000 27.941138
RightHandThumb1 -24.326973 -0.000000 -32.862282
LeftUpLeg -5.362268 1.949147 27.704818
LeftLeg 29.749144 -0.000000 -0.000000
LeftFoot -20.400613 18.493395 -16.863403
LeftToeBase -4.879553 -0.000000 0.000000
RightUpLeg -140.082189 -21.435670 30.342073
RightLeg 72.145212 -0.000000 -0.000000
RightFoot 41.219059 -1.127844 11.004034
RightToeBase 21.399750 -0.000000 -0.000000
572
root 1.836341 33.322299 -1.730225 -1.863132 -15.352137 -33.031181
Spine 33.523361 15.293571 29.065265
Head -20.742520 -4.788330 12.174410
LeftShoulder -21.877328 39.205712 17.589857
LeftArm 59.427137 -52.638662 -85.816333
LeftForeArm 4.898753 -0.000000 23.787473
LeftHand 11.077087 0.000000 16.362046
LeftHandThumb1 -26.253704 0.000000 33.147579
RightShoulder 6.302208 21.267165 -14.712647
RightArm 21.495013 56.358423 73.293562
RightForeArm 61.831676 -0.000000 44.719323
RightHand -2.219000 0.000000 28.067686
RightHandThumb1 -24.326973 -0.000000 -32.862282
LeftUpLeg -4.948631 1.560945 28.079211
LeftLeg 29.572120 -0.000000 -0.000000
LeftFoot -20.387075 19.172944 -16.449878
LeftToeBase -5.102557 -0.000000 0.000000
RightUpLeg -140.424115 -21.517393 30.484597
RightLeg 70.992851 -0.000000 -0.000000
RightFoot 41.231634 -1.215017 10.995969
RightToeBase 20.914723 -0.000000 -0.000000
573
root 1.683426 33.524833 -1.547343 -2.749963 -14.871503 -36.662010
Spine 34.292204 13.376222 33.082050
Head -20.151431 -4.724870 11.489243
LeftShoulder -22.245402 39.186051 16.931948
LeftArm 60.341008 -53.651571 -86.386334
LeftForeArm 5.228196 -0.000000 24.124151
LeftHand 10.958546 -0.000000 16.583292
LeftHandThumb1 -26.253704 0.000000 33.147579
RightShoulder 6.019524 21.817486 -15.196510
RightArm 21.452203 56.548382 72.632458
RightForeArm 61.595705 -0.000000 44.932207
RightHand -2.063744 -0.000000 27.650669
RightHandThumb1 -24.326973 -0.000000 -32.862282
LeftUpLeg -2.985132 0.293835 31.989762
LeftLeg 28.915032 -0.000000 -0.000000
LeftFoot -20.069987 18.940275 -16.060805
LeftToeBase -5.466704 -0.000000 0.000000
RightUpLeg -146.236210 -19.990937 40.729233
RightLeg 75.047549 -0.000000 -0.000000
RightFoot 45.953725 0.765751 0.937327
RightToeBase 21.273422 -0.000000 -0.000000
574
root 1.627791 33.554555 -1.483565 -2.721754 -15.058254 -37.256830
Spine 33.915952 13.360833 33.473526
Head -19.373356 -4.581067 11.604386
LeftShoulder -22.291509 39.111948 17.105942
LeftArm 61.013101 -54.772992 -86.582104
LeftForeArm 5.247135 -0.000000 24.159145
LeftHand 10.911409 -0.000000 16.569029
LeftHandThumb1 -26.253704 0.000000 33.147579
RightShoulder 5.861067 22.673862 -15.410283
RightArm 21.058406 57.066702 72.055473
RightForeArm 61.114202 -0.000000 45.122454
RightHand -1.948540 -0.000000 27.543268
RightHandThumb1 -24.326973 -0.000000 -32.862282
LeftUpLeg -2.536068 -0.076662 32.566729
LeftLeg 28.724546 -0.000000 -0.000000
LeftFoot -20.177306 19.351615 -15.842841
LeftToeBase -5.533140 -0.000000 0.000000
RightUpLeg -146.598593 -19.990797 41.078980
RightLeg 74.109718 -0.000000 -0.000000
RightFoot 45.780923 0.802863 0.894066
RightToeBase 21.310705 -0.000000 -0.000000
575
root 1.574134 33.583303 -1.416343 -2.706448 -15.253279 -37.898939
Spine 33.566739 13.379863 33.940861
Head -18.592353 -4.433526 11.796012
LeftShoulder -22.298999 38.749200 17.451075
LeftArm 61.363296 -55.747138 -86.514161
LeftForeArm 5.397750 -0.000000 24.176318
LeftHand 10.753364 -0.000000 16.631805
LeftHandThumb1 -26.253704 0.000000 33.147579
RightShoulder 5.681206 23.134054 -15.566542
RightArm 21.191453 57.625966 71.762819
RightForeArm 60.947382 -0.000000 45.316445
RightHand -1.990436 -0.000000 27.525303
RightHandThumb1 -24.326973 -0.000000 -32.862282
LeftUpLeg -2.048485 -0.394792 33.200808
LeftLeg 28.538148 -0.000000 -0.000000
LeftFoot -20.319770 19.708504 -15.641227
LeftToeBase -5.575521 -0.000000 0.000000
RightUpLeg -146.936922 -20.019250 41.483118
RightLeg 73.192356 -0.000000 -0.000000
RightFoot 45.613821 0.682776 0.927186
RightToeBase 21.552272 -0.000000 -0.000000
576
root 1.520201 33.610710 -1.353262 -2.643511 -15.435148 -38.477829
Spine 33.157239 13.459757 34.317052
Head -17.803902 -4.319344 12.099439
LeftShoulder -22.286890 38.570180 17.786556
LeftArm 61.824166 -56.712281 -86.507380
LeftForeArm 5.458944 -0.000000 24.233444
LeftHand 10.671921 -0.000000 16.706073
LeftHandThumb1 -26.253704 0.000000 33.147579
RightShoulder 5.471467 23.675820 -15.687392
RightArm 21.126919 58.052552 71.263571
RightForeArm 60.912265 -0.000000 45.406426
RightHand -1.969213 -0.000000 27.379378
RightHandThumb1 -24.326973 -0.000000 -32.862282
LeftUpLeg -1.638731 -0.635902 33.796007
LeftLeg 28.380759 -0.000000 -0.000000
LeftFoot -20.441835 19.920553 -15.521983
LeftToeBase -5.537823 -0.000000 0.000000
RightUpLeg -147.301699 -20.022038 41.813713
RightLeg 72.275521 -0.000000 -0.000000
RightFoot 45.475700 0.560445 0.889130
RightToeBase 21.425260 -0.000000 -0.000000
577
root 1.464438 33.636522 -1.286999 -2.596033 -15.632010 -39.058131
Spine 32.788008 13.567681 34.715023
Head -17.049849 -4.267382 12.410789
LeftShoulder -22.304673 38.420739 18.050339
LeftArm 62.461104 -57.688259 -86.547487
LeftForeArm 5.344385 0.000000 24.235243
LeftHand 10.679163 0.000000 16.769634
LeftHandThumb1 -26.253704 0.000000 33.147579
RightShoulder 5.187674 24.262848 -15.825030
RightArm 21.096099 58.496388 70.858874
RightForeArm 60.768215 -0.000000 45.506027
RightHand -2.063375 -0.000000 27.402553
RightHandThumb1 -24.326973 -0.000000 -32.862282
LeftUpLeg -1.206027 -0.819272 34.400804
LeftLeg 28.230184 -0.000000 -0.000000
LeftFoot -20.558629 20.118677 -15.385319
LeftToeBase -5.848807 -0.000000 0.000000
RightUpLeg -147.642797 -20.043186 42.149140
RightLeg 71.386231 -0.000000 -0.000000
RightFoot 45.287543 0.364829 0.834659
RightToeBase 21.512406 -0.000000 -0.000000
